===================================================================================

				HD DESI ROCKERS RELEASES

======================================================================================
The.Wolfman.2010.Bluray..720p.Dual.Audio.Hindi_Eng.DjVikas.mkv
Format                           : Matroska
File size                        : 2.51 GiB
Duration                         : 1h 59mn
Overall bit rate                 : 3 014 Kbps
Movie name                       : The.Wolfman.2010.Bluray..720p.Dual.Audio.Hindi_Eng.DjVikas

Video
ID                               : 1
Format                           : AVC
Duration                         : 1h 59mn
Bit rate                         : 2 442 Kbps
Width                            : 1 280 pixels
Height                           : 694 pixels
Display aspect ratio             : 16:9
Frame rate                       : 23.976 fps
Bits/(Pixel*Frame)               : 0.115
Stream size                      : 2.03 GiB (81%)

Audio #1
ID                               : 2
Format                           : AC-3
Format/Info                      : Audio Coding 3
Mode extension                   : CM (complete main)
Codec ID                         : A_AC3
Duration                         : 1h 59mn
Bit rate mode                    : Constant
Bit rate                         : 384 Kbps
Channel(s)                       : 6 channels
Channel positions                : Front: L C R, Side: L R, LFE
Sampling rate                    : 48.0 KHz
Bit depth                        : 16 bits
Stream size                      : 327 MiB (13%)

Audio #2
ID                               : 3
Format                           : MPEG Audio
Format version                   : Version 1
Format profile                   : Layer 3
Mode                             : Joint stereo
Codec ID                         : A_MPEG/L3
Codec ID/Hint                    : MP3
Duration                         : 1h 59mn
Bit rate mode                    : Constant
Bit rate                         : 128 Kbps
Channel(s)                       : 2 channels
Sampling rate                    : 48.0 KHz
Stream size                      : 109 MiB (4%)
Title                            : HINDI - DJ VIKAS


SCREENSHOTS 
http://img651.imageshack.us/img651/3307/thewolfman2010bluray720.jpg 
http://img22.imageshack.us/img22/3307/thewolfman2010bluray720.jpg 
http://img707.imageshack.us/img707/3307/thewolfman2010bluray720.jpg 
http://img205.imageshack.us/img205/3307/thewolfman2010bluray720.jpg 
http://img294.imageshack.us/img294/3307/thewolfman2010bluray720.jpg 
http://img508.imageshack.us/img508/3307/thewolfman2010bluray720.jpg 
http://img17.imageshack.us/img17/3307/thewolfman2010bluray720.jpg 
http://img186.imageshack.us/img186/3307/thewolfman2010bluray720.jpg 
http://img225.imageshack.us/img225/3307/thewolfman2010bluray720.jpg 
http://img293.imageshack.us/img293/3307/thewolfman2010bluray720.jpg 
http://img818.imageshack.us/img818/3307/thewolfman2010bluray720.jpg 
http://img683.imageshack.us/img683/3307/thewolfman2010bluray720.jpg

